<mxfile host="app.diagrams.net" modified="2024-03-08T23:32:46.878Z" agent="Mozilla/5.0 (X11; Linux x86_64; rv:123.0) Gecko/20100101 Firefox/123.0" etag="ofRh3s2hJL1SXRMRIw1E" version="24.0.2" type="github">
  <diagram name="Page-1" id="404_kxYsZ5X8p2S8uvQf">
    <mxGraphModel dx="1647" dy="-85" grid="1" gridSize="10" guides="1" tooltips="1" connect="1" arrows="1" fold="1" page="1" pageScale="1" pageWidth="850" pageHeight="1100" math="0" shadow="0">
      <root>
        <mxCell id="0" />
        <mxCell id="1" parent="0" />
        <mxCell id="FK0QaliLXLegpWt-v-c3-3" value="" style="rounded=0;whiteSpace=wrap;html=1;fillColor=#000000;fillOpacity=20;" vertex="1" parent="1">
          <mxGeometry x="727" y="1694" width="44" height="20" as="geometry" />
        </mxCell>
        <mxCell id="FK0QaliLXLegpWt-v-c3-1" value="" style="rounded=0;whiteSpace=wrap;html=1;fillColor=#000000;fillOpacity=20;" vertex="1" parent="1">
          <mxGeometry x="726" y="1180" width="44" height="20" as="geometry" />
        </mxCell>
        <mxCell id="FK0QaliLXLegpWt-v-c3-2" value="" style="rounded=0;whiteSpace=wrap;html=1;fillColor=#000000;fillOpacity=20;" vertex="1" parent="1">
          <mxGeometry x="726" y="1436" width="44" height="20" as="geometry" />
        </mxCell>
        <mxCell id="0Rgwea09dTIiz1nyik_j-9" value="" style="rounded=0;whiteSpace=wrap;html=1;fillColor=none;dashed=1;strokeColor=#666600;" parent="1" vertex="1">
          <mxGeometry x="1070" y="1480" width="70" height="270" as="geometry" />
        </mxCell>
        <mxCell id="8ftiR1pAZEAG93mxzUA_-40" value="" style="shape=parallelogram;perimeter=parallelogramPerimeter;whiteSpace=wrap;html=1;fixedSize=1;size=143.25;fillColor=#000000;fillOpacity=20;" parent="1" vertex="1">
          <mxGeometry x="582.62" y="1714" width="593.25" height="190" as="geometry" />
        </mxCell>
        <mxCell id="0Rgwea09dTIiz1nyik_j-20" value="" style="shape=parallelogram;perimeter=parallelogramPerimeter;whiteSpace=wrap;html=1;fixedSize=1;size=143.25;fillColor=none;fillOpacity=20;dashed=1;strokeColor=#4508A1;" parent="1" vertex="1">
          <mxGeometry x="950" y="1724" width="200" height="156" as="geometry" />
        </mxCell>
        <mxCell id="8ftiR1pAZEAG93mxzUA_-39" value="" style="shape=parallelogram;perimeter=parallelogramPerimeter;whiteSpace=wrap;html=1;fixedSize=1;size=143.25;fillColor=#000000;fillOpacity=20;" parent="1" vertex="1">
          <mxGeometry x="582.62" y="1456" width="593.25" height="190" as="geometry" />
        </mxCell>
        <mxCell id="8ftiR1pAZEAG93mxzUA_-38" value="" style="shape=parallelogram;perimeter=parallelogramPerimeter;whiteSpace=wrap;html=1;fixedSize=1;size=143.25;fillColor=#000000;fillOpacity=20;" parent="1" vertex="1">
          <mxGeometry x="582.62" y="1200" width="593.25" height="190" as="geometry" />
        </mxCell>
        <mxCell id="8ftiR1pAZEAG93mxzUA_-18" value="" style="rounded=0;orthogonalLoop=1;jettySize=auto;html=1;startArrow=classic;startFill=1;" parent="1" source="8ftiR1pAZEAG93mxzUA_-8" target="8ftiR1pAZEAG93mxzUA_-17" edge="1">
          <mxGeometry relative="1" as="geometry" />
        </mxCell>
        <mxCell id="8ftiR1pAZEAG93mxzUA_-8" value="" style="verticalLabelPosition=bottom;sketch=0;html=1;fillColor=#A153A0;verticalAlign=top;align=center;pointerEvents=1;shape=mxgraph.cisco_safe.design.actor_1;" parent="1" vertex="1">
          <mxGeometry x="630" y="1846" width="23.5" height="50" as="geometry" />
        </mxCell>
        <mxCell id="8ftiR1pAZEAG93mxzUA_-16" value="" style="rounded=0;orthogonalLoop=1;jettySize=auto;html=1;startArrow=classic;startFill=1;" parent="1" source="8ftiR1pAZEAG93mxzUA_-9" target="8ftiR1pAZEAG93mxzUA_-15" edge="1">
          <mxGeometry relative="1" as="geometry" />
        </mxCell>
        <mxCell id="8ftiR1pAZEAG93mxzUA_-9" value="" style="verticalLabelPosition=bottom;sketch=0;html=1;fillColor=#A153A0;verticalAlign=top;align=center;pointerEvents=1;shape=mxgraph.cisco_safe.design.actor_2;" parent="1" vertex="1">
          <mxGeometry x="700" y="1776" width="19" height="50" as="geometry" />
        </mxCell>
        <mxCell id="8ftiR1pAZEAG93mxzUA_-10" value="" style="verticalLabelPosition=bottom;sketch=0;html=1;fillColor=#A153A0;verticalAlign=top;align=center;pointerEvents=1;shape=mxgraph.cisco_safe.design.actor_2;" parent="1" vertex="1">
          <mxGeometry x="1100" y="1686" width="19" height="50" as="geometry" />
        </mxCell>
        <mxCell id="8ftiR1pAZEAG93mxzUA_-11" value="" style="verticalLabelPosition=bottom;sketch=0;html=1;fillColor=#CC0000;verticalAlign=top;align=center;pointerEvents=1;shape=mxgraph.cisco_safe.design.actor_2;" parent="1" vertex="1">
          <mxGeometry x="1071" y="1177" width="19" height="50" as="geometry" />
        </mxCell>
        <mxCell id="0Rgwea09dTIiz1nyik_j-6" value="" style="rounded=0;orthogonalLoop=1;jettySize=auto;html=1;startArrow=classic;startFill=1;" parent="1" source="8ftiR1pAZEAG93mxzUA_-12" target="0Rgwea09dTIiz1nyik_j-5" edge="1">
          <mxGeometry relative="1" as="geometry" />
        </mxCell>
        <mxCell id="8ftiR1pAZEAG93mxzUA_-12" value="" style="verticalLabelPosition=bottom;sketch=0;html=1;fillColor=#FFFF33;verticalAlign=top;align=center;pointerEvents=1;shape=mxgraph.cisco_safe.design.actor_1;" parent="1" vertex="1">
          <mxGeometry x="1090" y="1490" width="23.5" height="50" as="geometry" />
        </mxCell>
        <mxCell id="8ftiR1pAZEAG93mxzUA_-14" value="" style="endArrow=classic;html=1;rounded=0;exitX=0.959;exitY=0.023;exitDx=0;exitDy=0;exitPerimeter=0;entryX=-0.056;entryY=1.019;entryDx=0;entryDy=0;entryPerimeter=0;startArrow=classic;startFill=1;" parent="1" source="8ftiR1pAZEAG93mxzUA_-8" target="8ftiR1pAZEAG93mxzUA_-9" edge="1">
          <mxGeometry width="50" height="50" relative="1" as="geometry">
            <mxPoint x="566" y="1836" as="sourcePoint" />
            <mxPoint x="616" y="1786" as="targetPoint" />
          </mxGeometry>
        </mxCell>
        <mxCell id="8ftiR1pAZEAG93mxzUA_-15" value="" style="verticalLabelPosition=bottom;sketch=0;html=1;fillColor=#A153A0;verticalAlign=top;align=center;pointerEvents=1;shape=mxgraph.cisco_safe.design.actor_2;" parent="1" vertex="1">
          <mxGeometry x="765" y="1726" width="19" height="50" as="geometry" />
        </mxCell>
        <mxCell id="8ftiR1pAZEAG93mxzUA_-17" value="" style="verticalLabelPosition=bottom;sketch=0;html=1;fillColor=#A153A0;verticalAlign=top;align=center;pointerEvents=1;shape=mxgraph.cisco_safe.design.actor_1;" parent="1" vertex="1">
          <mxGeometry x="750" y="1846" width="23.5" height="50" as="geometry" />
        </mxCell>
        <mxCell id="8ftiR1pAZEAG93mxzUA_-19" value="" style="rounded=0;orthogonalLoop=1;jettySize=auto;html=1;startArrow=classic;startFill=1;exitX=0.977;exitY=1.004;exitDx=0;exitDy=0;exitPerimeter=0;entryX=-0.003;entryY=0.291;entryDx=0;entryDy=0;entryPerimeter=0;" parent="1" source="8ftiR1pAZEAG93mxzUA_-9" target="8ftiR1pAZEAG93mxzUA_-17" edge="1">
          <mxGeometry relative="1" as="geometry">
            <mxPoint x="650" y="1940" as="sourcePoint" />
            <mxPoint x="773" y="1932" as="targetPoint" />
          </mxGeometry>
        </mxCell>
        <mxCell id="8ftiR1pAZEAG93mxzUA_-20" value="" style="rounded=0;orthogonalLoop=1;jettySize=auto;html=1;startArrow=classic;startFill=1;entryX=0.993;entryY=0.517;entryDx=0;entryDy=0;entryPerimeter=0;" parent="1" source="8ftiR1pAZEAG93mxzUA_-21" target="8ftiR1pAZEAG93mxzUA_-17" edge="1">
          <mxGeometry relative="1" as="geometry" />
        </mxCell>
        <mxCell id="8ftiR1pAZEAG93mxzUA_-21" value="" style="verticalLabelPosition=bottom;sketch=0;html=1;fillColor=#A153A0;verticalAlign=top;align=center;pointerEvents=1;shape=mxgraph.cisco_safe.design.actor_1;" parent="1" vertex="1">
          <mxGeometry x="850" y="1840" width="23.5" height="50" as="geometry" />
        </mxCell>
        <mxCell id="8ftiR1pAZEAG93mxzUA_-22" value="" style="rounded=0;orthogonalLoop=1;jettySize=auto;html=1;startArrow=classic;startFill=1;" parent="1" source="8ftiR1pAZEAG93mxzUA_-23" target="8ftiR1pAZEAG93mxzUA_-25" edge="1">
          <mxGeometry relative="1" as="geometry" />
        </mxCell>
        <mxCell id="8ftiR1pAZEAG93mxzUA_-23" value="" style="verticalLabelPosition=bottom;sketch=0;html=1;fillColor=#A153A0;verticalAlign=top;align=center;pointerEvents=1;shape=mxgraph.cisco_safe.design.actor_2;" parent="1" vertex="1">
          <mxGeometry x="891" y="1760" width="19" height="50" as="geometry" />
        </mxCell>
        <mxCell id="8ftiR1pAZEAG93mxzUA_-24" value="" style="endArrow=classic;html=1;rounded=0;exitX=0.959;exitY=0.023;exitDx=0;exitDy=0;exitPerimeter=0;entryX=-0.056;entryY=1.019;entryDx=0;entryDy=0;entryPerimeter=0;startArrow=classic;startFill=1;" parent="1" source="8ftiR1pAZEAG93mxzUA_-21" target="8ftiR1pAZEAG93mxzUA_-23" edge="1">
          <mxGeometry width="50" height="50" relative="1" as="geometry">
            <mxPoint x="776" y="1796" as="sourcePoint" />
            <mxPoint x="826" y="1746" as="targetPoint" />
          </mxGeometry>
        </mxCell>
        <mxCell id="8ftiR1pAZEAG93mxzUA_-25" value="" style="verticalLabelPosition=bottom;sketch=0;html=1;fillColor=#A153A0;verticalAlign=top;align=center;pointerEvents=1;shape=mxgraph.cisco_safe.design.actor_2;" parent="1" vertex="1">
          <mxGeometry x="820" y="1736" width="19" height="50" as="geometry" />
        </mxCell>
        <mxCell id="8ftiR1pAZEAG93mxzUA_-26" value="" style="verticalLabelPosition=bottom;sketch=0;html=1;fillColor=#A153A0;verticalAlign=top;align=center;pointerEvents=1;shape=mxgraph.cisco_safe.design.actor_1;" parent="1" vertex="1">
          <mxGeometry x="990" y="1826" width="23.5" height="50" as="geometry" />
        </mxCell>
        <mxCell id="8ftiR1pAZEAG93mxzUA_-27" value="" style="rounded=0;orthogonalLoop=1;jettySize=auto;html=1;startArrow=classic;startFill=1;exitX=0.977;exitY=1.004;exitDx=0;exitDy=0;exitPerimeter=0;entryX=-0.003;entryY=0.291;entryDx=0;entryDy=0;entryPerimeter=0;" parent="1" source="8ftiR1pAZEAG93mxzUA_-23" target="8ftiR1pAZEAG93mxzUA_-26" edge="1">
          <mxGeometry relative="1" as="geometry">
            <mxPoint x="860" y="1900" as="sourcePoint" />
            <mxPoint x="983" y="1892" as="targetPoint" />
          </mxGeometry>
        </mxCell>
        <mxCell id="8ftiR1pAZEAG93mxzUA_-28" value="" style="rounded=0;orthogonalLoop=1;jettySize=auto;html=1;startArrow=classic;startFill=1;exitX=0.332;exitY=1.031;exitDx=0;exitDy=0;exitPerimeter=0;entryX=0.896;entryY=-0.026;entryDx=0;entryDy=0;entryPerimeter=0;" parent="1" source="8ftiR1pAZEAG93mxzUA_-25" target="8ftiR1pAZEAG93mxzUA_-17" edge="1">
          <mxGeometry relative="1" as="geometry">
            <mxPoint x="695" y="1886" as="sourcePoint" />
            <mxPoint x="773" y="1921" as="targetPoint" />
          </mxGeometry>
        </mxCell>
        <mxCell id="8ftiR1pAZEAG93mxzUA_-33" value="" style="rounded=0;orthogonalLoop=1;jettySize=auto;html=1;startArrow=classic;startFill=1;" parent="1" source="8ftiR1pAZEAG93mxzUA_-29" target="8ftiR1pAZEAG93mxzUA_-26" edge="1">
          <mxGeometry relative="1" as="geometry" />
        </mxCell>
        <mxCell id="8ftiR1pAZEAG93mxzUA_-29" value="" style="verticalLabelPosition=bottom;sketch=0;html=1;fillColor=#A153A0;verticalAlign=top;align=center;pointerEvents=1;shape=mxgraph.cisco_safe.design.actor_2;" parent="1" vertex="1">
          <mxGeometry x="930" y="1726" width="19" height="50" as="geometry" />
        </mxCell>
        <mxCell id="8ftiR1pAZEAG93mxzUA_-30" value="" style="verticalLabelPosition=bottom;sketch=0;html=1;fillColor=#A153A0;verticalAlign=top;align=center;pointerEvents=1;shape=mxgraph.cisco_safe.design.actor_1;" parent="1" vertex="1">
          <mxGeometry x="1006" y="1700" width="23.5" height="50" as="geometry" />
        </mxCell>
        <mxCell id="8ftiR1pAZEAG93mxzUA_-31" value="" style="rounded=0;orthogonalLoop=1;jettySize=auto;html=1;startArrow=classic;startFill=1;exitX=1.043;exitY=0.668;exitDx=0;exitDy=0;exitPerimeter=0;entryX=-0.003;entryY=0.291;entryDx=0;entryDy=0;entryPerimeter=0;" parent="1" source="8ftiR1pAZEAG93mxzUA_-29" target="8ftiR1pAZEAG93mxzUA_-30" edge="1">
          <mxGeometry relative="1" as="geometry">
            <mxPoint x="908.37" y="1830" as="sourcePoint" />
            <mxPoint x="1031.37" y="1822" as="targetPoint" />
          </mxGeometry>
        </mxCell>
        <mxCell id="0Rgwea09dTIiz1nyik_j-4" value="" style="rounded=0;orthogonalLoop=1;jettySize=auto;html=1;startArrow=classic;startFill=1;" parent="1" source="8ftiR1pAZEAG93mxzUA_-36" target="0Rgwea09dTIiz1nyik_j-3" edge="1">
          <mxGeometry relative="1" as="geometry" />
        </mxCell>
        <mxCell id="8ftiR1pAZEAG93mxzUA_-36" value="" style="verticalLabelPosition=bottom;sketch=0;html=1;fillColor=#FFFF33;verticalAlign=top;align=center;pointerEvents=1;shape=mxgraph.cisco_safe.design.actor_2;" parent="1" vertex="1">
          <mxGeometry x="891" y="1576" width="19" height="50" as="geometry" />
        </mxCell>
        <mxCell id="0Rgwea09dTIiz1nyik_j-30" value="" style="rounded=0;orthogonalLoop=1;jettySize=auto;html=1;startArrow=classic;startFill=1;" parent="1" source="8ftiR1pAZEAG93mxzUA_-37" target="0Rgwea09dTIiz1nyik_j-29" edge="1">
          <mxGeometry relative="1" as="geometry" />
        </mxCell>
        <mxCell id="8ftiR1pAZEAG93mxzUA_-37" value="" style="verticalLabelPosition=bottom;sketch=0;html=1;fillColor=#CC0000;verticalAlign=top;align=center;pointerEvents=1;shape=mxgraph.cisco_safe.design.actor_1;" parent="1" vertex="1">
          <mxGeometry x="867.5" y="1231" width="23.5" height="50" as="geometry" />
        </mxCell>
        <mxCell id="0Rgwea09dTIiz1nyik_j-1" value="" style="rounded=0;orthogonalLoop=1;jettySize=auto;html=1;entryX=0.368;entryY=0;entryDx=0;entryDy=0;entryPerimeter=0;startArrow=classic;startFill=1;exitX=0.766;exitY=1;exitDx=0;exitDy=0;exitPerimeter=0;dashed=1;" parent="1" source="8ftiR1pAZEAG93mxzUA_-12" target="8ftiR1pAZEAG93mxzUA_-10" edge="1">
          <mxGeometry relative="1" as="geometry">
            <mxPoint x="1024" y="1848" as="sourcePoint" />
            <mxPoint x="1118" y="1746" as="targetPoint" />
          </mxGeometry>
        </mxCell>
        <mxCell id="0Rgwea09dTIiz1nyik_j-2" value="" style="rounded=0;orthogonalLoop=1;jettySize=auto;html=1;startArrow=classic;startFill=1;exitX=1.263;exitY=0.54;exitDx=0;exitDy=0;exitPerimeter=0;entryX=-0.085;entryY=0.7;entryDx=0;entryDy=0;entryPerimeter=0;" parent="1" source="8ftiR1pAZEAG93mxzUA_-36" target="8ftiR1pAZEAG93mxzUA_-12" edge="1">
          <mxGeometry relative="1" as="geometry">
            <mxPoint x="960" y="1769" as="sourcePoint" />
            <mxPoint x="1016" y="1725" as="targetPoint" />
          </mxGeometry>
        </mxCell>
        <mxCell id="0Rgwea09dTIiz1nyik_j-3" value="" style="verticalLabelPosition=bottom;sketch=0;html=1;fillColor=#FFFF33;verticalAlign=top;align=center;pointerEvents=1;shape=mxgraph.cisco_safe.design.actor_2;" parent="1" vertex="1">
          <mxGeometry x="792" y="1576" width="19" height="50" as="geometry" />
        </mxCell>
        <mxCell id="0Rgwea09dTIiz1nyik_j-5" value="" style="verticalLabelPosition=bottom;sketch=0;html=1;fillColor=#FFFF33;verticalAlign=top;align=center;pointerEvents=1;shape=mxgraph.cisco_safe.design.actor_1;" parent="1" vertex="1">
          <mxGeometry x="891" y="1490" width="23.5" height="50" as="geometry" />
        </mxCell>
        <mxCell id="0Rgwea09dTIiz1nyik_j-7" value="" style="rounded=0;orthogonalLoop=1;jettySize=auto;html=1;startArrow=classic;startFill=1;exitX=0.474;exitY=0.02;exitDx=0;exitDy=0;exitPerimeter=0;entryX=0.553;entryY=1.04;entryDx=0;entryDy=0;entryPerimeter=0;" parent="1" source="8ftiR1pAZEAG93mxzUA_-36" target="0Rgwea09dTIiz1nyik_j-5" edge="1">
          <mxGeometry relative="1" as="geometry">
            <mxPoint x="901" y="1611" as="sourcePoint" />
            <mxPoint x="821" y="1611" as="targetPoint" />
          </mxGeometry>
        </mxCell>
        <mxCell id="0Rgwea09dTIiz1nyik_j-8" value="" style="rounded=0;orthogonalLoop=1;jettySize=auto;html=1;entryX=0.383;entryY=-0.02;entryDx=0;entryDy=0;entryPerimeter=0;startArrow=classic;startFill=1;exitX=1.053;exitY=1.06;exitDx=0;exitDy=0;exitPerimeter=0;dashed=1;" parent="1" source="8ftiR1pAZEAG93mxzUA_-36" target="8ftiR1pAZEAG93mxzUA_-30" edge="1">
          <mxGeometry relative="1" as="geometry">
            <mxPoint x="1088" y="1586" as="sourcePoint" />
            <mxPoint x="1117" y="1696" as="targetPoint" />
          </mxGeometry>
        </mxCell>
        <mxCell id="0Rgwea09dTIiz1nyik_j-10" value="" style="endArrow=classicThin;html=1;rounded=0;endFill=1;" parent="1" edge="1">
          <mxGeometry width="50" height="50" relative="1" as="geometry">
            <mxPoint x="1330" y="1554" as="sourcePoint" />
            <mxPoint x="1140.0000000000002" y="1554" as="targetPoint" />
          </mxGeometry>
        </mxCell>
        <mxCell id="0Rgwea09dTIiz1nyik_j-12" value="&lt;font face=&quot;Verdana&quot;&gt;INTER-LAYER INTERACTION&lt;/font&gt;" style="edgeLabel;html=1;align=center;verticalAlign=middle;resizable=0;points=[];" parent="0Rgwea09dTIiz1nyik_j-10" vertex="1" connectable="0">
          <mxGeometry x="-0.2842" relative="1" as="geometry">
            <mxPoint x="-22" y="-14" as="offset" />
          </mxGeometry>
        </mxCell>
        <mxCell id="0Rgwea09dTIiz1nyik_j-13" value="&lt;div align=&quot;left&quot;&gt;&lt;font color=&quot;#666600&quot; face=&quot;Times New Roman&quot;&gt;Undirected Community Edge:&amp;nbsp;&lt;/font&gt;&lt;/div&gt;&lt;div align=&quot;left&quot;&gt;&lt;font color=&quot;#666600&quot; face=&quot;Times New Roman&quot;&gt;&lt;span style=&quot;white-space: pre;&quot;&gt;&#x9;&lt;span style=&quot;white-space: pre;&quot;&gt;&#x9;&lt;/span&gt;&lt;/span&gt;[(Alice,Type2), (Bob,Type3),&amp;nbsp; &amp;lt;contact times&amp;gt; ]&lt;/font&gt;&lt;/div&gt;" style="text;html=1;align=left;verticalAlign=middle;resizable=0;points=[];autosize=1;strokeColor=none;fillColor=none;" parent="1" vertex="1">
          <mxGeometry x="1156" y="1550" width="310" height="40" as="geometry" />
        </mxCell>
        <mxCell id="0Rgwea09dTIiz1nyik_j-14" value="&lt;font color=&quot;#cc0000&quot;&gt;Type1&lt;/font&gt;" style="text;html=1;align=center;verticalAlign=middle;resizable=0;points=[];autosize=1;strokeColor=none;fillColor=none;" parent="1" vertex="1">
          <mxGeometry x="718" y="1175" width="60" height="30" as="geometry" />
        </mxCell>
        <mxCell id="0Rgwea09dTIiz1nyik_j-17" value="&lt;font color=&quot;#ffff33&quot;&gt;Type2&lt;/font&gt;" style="text;html=1;align=center;verticalAlign=middle;resizable=0;points=[];autosize=1;strokeColor=none;fillColor=none;" parent="1" vertex="1">
          <mxGeometry x="719" y="1431" width="60" height="30" as="geometry" />
        </mxCell>
        <mxCell id="0Rgwea09dTIiz1nyik_j-19" value="&lt;font color=&quot;#a153a0&quot;&gt;Type3&lt;/font&gt;" style="text;html=1;align=center;verticalAlign=middle;resizable=0;points=[];autosize=1;strokeColor=none;fillColor=none;" parent="1" vertex="1">
          <mxGeometry x="719" y="1689" width="60" height="30" as="geometry" />
        </mxCell>
        <mxCell id="8ftiR1pAZEAG93mxzUA_-34" value="" style="rounded=0;orthogonalLoop=1;jettySize=auto;html=1;entryX=0.431;entryY=1;entryDx=0;entryDy=0;entryPerimeter=0;startArrow=classic;startFill=1;" parent="1" source="8ftiR1pAZEAG93mxzUA_-26" target="8ftiR1pAZEAG93mxzUA_-10" edge="1">
          <mxGeometry relative="1" as="geometry" />
        </mxCell>
        <mxCell id="0Rgwea09dTIiz1nyik_j-21" value="" style="endArrow=classicThin;html=1;rounded=0;endFill=1;entryX=0.598;entryY=0.572;entryDx=0;entryDy=0;entryPerimeter=0;" parent="1" target="0Rgwea09dTIiz1nyik_j-20" edge="1">
          <mxGeometry width="50" height="50" relative="1" as="geometry">
            <mxPoint x="1300" y="1814" as="sourcePoint" />
            <mxPoint x="1110" y="1814" as="targetPoint" />
          </mxGeometry>
        </mxCell>
        <mxCell id="0Rgwea09dTIiz1nyik_j-22" value="&lt;font face=&quot;Verdana&quot;&gt;INTRA-LAYER INTERACTION&lt;/font&gt;" style="edgeLabel;html=1;align=center;verticalAlign=middle;resizable=0;points=[];" parent="0Rgwea09dTIiz1nyik_j-21" vertex="1" connectable="0">
          <mxGeometry x="-0.2842" relative="1" as="geometry">
            <mxPoint x="-22" y="-14" as="offset" />
          </mxGeometry>
        </mxCell>
        <mxCell id="0Rgwea09dTIiz1nyik_j-23" value="&lt;div align=&quot;left&quot;&gt;&lt;font color=&quot;#666600&quot; face=&quot;Times New Roman&quot;&gt;Undirected Network Edge:&amp;nbsp;&lt;/font&gt;&lt;/div&gt;&lt;div align=&quot;left&quot;&gt;&lt;font color=&quot;#666600&quot; face=&quot;Times New Roman&quot;&gt;&lt;span style=&quot;white-space: pre;&quot;&gt;&#x9;&lt;span style=&quot;white-space: pre;&quot;&gt;&#x9;&lt;/span&gt;&lt;/span&gt;[(Alex,Type3), (Bob,Type3)]&lt;/font&gt;&lt;/div&gt;" style="text;html=1;align=left;verticalAlign=middle;resizable=0;points=[];autosize=1;strokeColor=none;fillColor=none;" parent="1" vertex="1">
          <mxGeometry x="1126" y="1810" width="220" height="40" as="geometry" />
        </mxCell>
        <mxCell id="0Rgwea09dTIiz1nyik_j-24" value="" style="endArrow=classicThin;html=1;rounded=0;endFill=1;" parent="1" edge="1">
          <mxGeometry width="50" height="50" relative="1" as="geometry">
            <mxPoint x="1304" y="1283" as="sourcePoint" />
            <mxPoint x="1114.0000000000002" y="1283" as="targetPoint" />
          </mxGeometry>
        </mxCell>
        <mxCell id="0Rgwea09dTIiz1nyik_j-25" value="&lt;font face=&quot;Verdana&quot;&gt;SPECIFIC TYPE NETWORK&lt;/font&gt;" style="edgeLabel;html=1;align=center;verticalAlign=middle;resizable=0;points=[];" parent="0Rgwea09dTIiz1nyik_j-24" vertex="1" connectable="0">
          <mxGeometry x="-0.2842" relative="1" as="geometry">
            <mxPoint x="-22" y="-14" as="offset" />
          </mxGeometry>
        </mxCell>
        <mxCell id="0Rgwea09dTIiz1nyik_j-26" value="&lt;div align=&quot;left&quot;&gt;&lt;font color=&quot;#666600&quot; face=&quot;Times New Roman&quot;&gt;Type network:&amp;nbsp;&lt;/font&gt;&lt;/div&gt;&lt;div align=&quot;left&quot;&gt;&lt;font color=&quot;#666600&quot; face=&quot;Times New Roman&quot;&gt;&lt;span style=&quot;white-space: pre;&quot;&gt;&#x9;&lt;span style=&quot;white-space: pre;&quot;&gt;&#x9;&lt;/span&gt;&lt;/span&gt;[ [(Max, Type1), (Cass, Type1)],&amp;nbsp;&lt;/font&gt;&lt;font color=&quot;#666600&quot; face=&quot;Times New Roman&quot;&gt; [(Max, Type1), (Kat, Type1)],&lt;/font&gt;&lt;font color=&quot;#666600&quot; face=&quot;Times New Roman&quot;&gt; ...&amp;nbsp; ]&lt;/font&gt;&lt;/div&gt;" style="text;html=1;align=left;verticalAlign=middle;resizable=0;points=[];autosize=1;strokeColor=none;fillColor=none;" parent="1" vertex="1">
          <mxGeometry x="1130" y="1279" width="410" height="40" as="geometry" />
        </mxCell>
        <mxCell id="0Rgwea09dTIiz1nyik_j-27" value="" style="rounded=0;orthogonalLoop=1;jettySize=auto;html=1;entryX=0.587;entryY=1.034;entryDx=0;entryDy=0;entryPerimeter=0;startArrow=classic;startFill=1;exitX=0.501;exitY=-0.003;exitDx=0;exitDy=0;exitPerimeter=0;dashed=1;" parent="1" source="8ftiR1pAZEAG93mxzUA_-12" target="8ftiR1pAZEAG93mxzUA_-11" edge="1">
          <mxGeometry relative="1" as="geometry">
            <mxPoint x="1118" y="1550" as="sourcePoint" />
            <mxPoint x="1117" y="1696" as="targetPoint" />
          </mxGeometry>
        </mxCell>
        <mxCell id="0Rgwea09dTIiz1nyik_j-28" value="" style="rounded=0;orthogonalLoop=1;jettySize=auto;html=1;startArrow=classic;startFill=1;entryX=1.009;entryY=0.52;entryDx=0;entryDy=0;entryPerimeter=0;exitX=-0.069;exitY=0.649;exitDx=0;exitDy=0;exitPerimeter=0;" parent="1" source="8ftiR1pAZEAG93mxzUA_-11" target="8ftiR1pAZEAG93mxzUA_-37" edge="1">
          <mxGeometry relative="1" as="geometry">
            <mxPoint x="1100" y="1525" as="sourcePoint" />
            <mxPoint x="925" y="1525" as="targetPoint" />
          </mxGeometry>
        </mxCell>
        <mxCell id="0Rgwea09dTIiz1nyik_j-32" value="" style="rounded=0;orthogonalLoop=1;jettySize=auto;html=1;startArrow=classic;startFill=1;" parent="1" source="0Rgwea09dTIiz1nyik_j-29" target="0Rgwea09dTIiz1nyik_j-31" edge="1">
          <mxGeometry relative="1" as="geometry" />
        </mxCell>
        <mxCell id="0Rgwea09dTIiz1nyik_j-29" value="" style="verticalLabelPosition=bottom;sketch=0;html=1;fillColor=#CC0000;verticalAlign=top;align=center;pointerEvents=1;shape=mxgraph.cisco_safe.design.actor_1;" parent="1" vertex="1">
          <mxGeometry x="764" y="1231" width="23.5" height="50" as="geometry" />
        </mxCell>
        <mxCell id="0Rgwea09dTIiz1nyik_j-31" value="" style="verticalLabelPosition=bottom;sketch=0;html=1;fillColor=#CC0000;verticalAlign=top;align=center;pointerEvents=1;shape=mxgraph.cisco_safe.design.actor_1;" parent="1" vertex="1">
          <mxGeometry x="867.5" y="1310" width="23.5" height="50" as="geometry" />
        </mxCell>
        <mxCell id="0Rgwea09dTIiz1nyik_j-33" value="" style="rounded=0;orthogonalLoop=1;jettySize=auto;html=1;startArrow=classic;startFill=1;entryX=1.083;entryY=0.601;entryDx=0;entryDy=0;entryPerimeter=0;exitX=0.022;exitY=1.014;exitDx=0;exitDy=0;exitPerimeter=0;" parent="1" source="8ftiR1pAZEAG93mxzUA_-11" target="0Rgwea09dTIiz1nyik_j-31" edge="1">
          <mxGeometry relative="1" as="geometry">
            <mxPoint x="797" y="1275" as="sourcePoint" />
            <mxPoint x="878" y="1336" as="targetPoint" />
          </mxGeometry>
        </mxCell>
        <mxCell id="J3vfsdHxU_HVQ3DFkkHK-1" value="" style="rounded=0;orthogonalLoop=1;jettySize=auto;html=1;entryX=1.128;entryY=1.04;entryDx=0;entryDy=0;entryPerimeter=0;startArrow=classic;startFill=1;exitX=-0.043;exitY=-0.06;exitDx=0;exitDy=0;exitPerimeter=0;dashed=1;" parent="1" source="8ftiR1pAZEAG93mxzUA_-12" target="0Rgwea09dTIiz1nyik_j-31" edge="1">
          <mxGeometry relative="1" as="geometry">
            <mxPoint x="1112" y="1500" as="sourcePoint" />
            <mxPoint x="1092" y="1239" as="targetPoint" />
          </mxGeometry>
        </mxCell>
      </root>
    </mxGraphModel>
  </diagram>
</mxfile>
